<?xml version="1.0" encoding="UTF-8"?><svg id="a" xmlns="http://www.w3.org/2000/svg" viewBox="0 0 800 571.7"><path d="m667.6,270.6c1.8-1.8,4.1-2.8,6.7-2.9,3.2-.3,6.3,1.1,8.1,3.7,3,4.3,3.4,12.6,1.9,17.8-1.1,5.2-3.7,10-7.5,13.7-2.1,2-5,2.9-7.9,2.8h-.8c-.6,2.5-1.4,4.9-2.3,7.4-4.4,11.3-11.3,21.4-20.3,29.5v1.7c-7.6,9-16.1,17.2-25.3,24.5l-3.9,1.4c-7.6-4.6-23.2-14.1-31.4-19.2v-.5c-7.2-3-13.7-7.5-19-13.2-6.7-6.9-11.9-15-15.2-24-3,.8-6.3.3-8.8-1.5-4.2-3.2-7.4-7.6-9.2-12.6-2.1-5-2.8-13.3-.4-17.9,1.5-2.8,4.4-4.7,7.6-4.8,2.5-.3,5,.4,7,2,0,0-16.3-55,46.7-65.6,76-12.8,74,57.7,74,57.7Z" style="fill:#fff; stroke-width:0px;"/><path d="m651.8,196.5c12.3,9.5,23.9,24.7,26.5,48.2.8,7.8.3,15.6-1.4,23.2-.9-.2-1.8-.2-2.7-.2-2.5,0-4.9,1.1-6.7,2.9-5.2,6.9-22-20.7-28.8-27.5l-55.3.9c-8.3,4.9-30.1,28.5-34,38-1.6-3.8-5.5-6-9.5-5.4-1,0-2,.3-2.9.6-2.7-7.4-4.2-15.1-4.5-22.9-.7-22,9-43.1,26.3-56.8,23.8-18.7,56.4-21.6,83.1-7.3l9.8,6.4Z" style="fill:#85807f; stroke-width:0px;"/><path d="m99.3,316.6c-1.5-2.5-2.9-5-3.9-7,16.3-5,32.9-12.3,42-23.9,1.1,4.7,3.5,8.9,6.9,12.3,1.1,1,2.3,1.7,3.7,2.2-2.9,3.4-5.7,6.8-5.7,6.8-11.6,14.4-24.8,22.9-31.9,25.7-4-5.1-7.7-10.5-11-16.1Z" style="fill:#fff; stroke-width:0px;"/><path d="m134.6,283.2c-9.4,12.4-25.9,18.4-40.2,22.8-2,.6-3.1,2.7-2.5,4.6,0,.3.2.5.3.8,4.3,8.5,9.5,16.5,15.5,23.9.9,1,2.3,1.3,3.6.9,13.2-5.4,24.6-15.7,33.5-26.7,1.4-1.5,1.4-3.7,0-5.2-1.4-1.4-3.8-1.4-5.2,0-5,6.2-10.6,11.8-16.9,16.6-2.4,1.8-4.9,3.5-7.5,5.1-1.1.7-2.3,1.3-3.5,1.9-.5.3-1,.5-1.6.8-.1,0-1.4.6-.9.4l3.6.9c-5.6-6.9-10.4-14.4-14.4-22.4l-2.2,5.4c16.4-5,33.9-12.1,44.6-26.2,1-1.8.4-4-1.3-5-1.8-1-4-.4-5,1.3h0Z" style="fill:#211715; stroke-width:0px;"/><path d="m280.2,275.1c2.5-6.3,4.1-13,4.8-19.8,0-.8.1-1.6.2-2.5,1.4-26.2-10.2-44.1-22.4-55-11.7-10.7-26.6-17.2-42.5-18.5-15-1.7-30.2,1.4-43.3,9-18.8,10.6-31.6,29.4-34.3,50.8-1,7.6-.7,15.3.7,22.9l-.3,27.7c-.9,11-8.5,21.3-8.4,32.6.5,2.9,2.1,8.9,3.7,10.9,6.4,8.3,16,13.6,26.4,14.6l5,7.4,77.6,1.5c3.5,0,7-.4,10.5-.8,9.5-.9,21-5.3,24.4-15,3.9-10.8-2.3-23.6-.5-35l-1.7-30.8Z" style="fill:#85807f; stroke-width:0px;"/><path d="m195.8,568c6.3-35,14.8-83.1,20.6-109.4,4.7-21.5,9.1-43.4,15.1-64.7l-1.1.3c-10.5,2.9-21.6,3.3-32.3,1.1-9.6-2.2-18.8-6.1-27.2-11.4-7.2,35.5-13.4,69.7-22.1,104.8-6.8,20.8-22,51.7-35.5,79.2h82.4Z" style="fill:#fff; stroke-width:0px;"/><path d="m247.6,249.7c-1-1.7-1.9-3.2-2.6-4.5,0,0-4.4-8.1-10.3-19.1v.2c-11.3,14.4-26.8,24.9-44.3,30.1-6.7,2,6-30.9-2.4-21.1-11.2,11-23.1,22.3-34.3,31.4-1.7-2-4.2-3.1-6.8-3.2-3.1-.3-6.2,1-8,3.6-2.9,4.2-3.4,12.3-2,17.5,1.1,5.1,3.6,9.8,7.3,13.5,2.2,2.1,5.3,3.1,8.3,2.7,2.1,9.2,6,17.8,11.6,25.4,5.8,7.8,12,13.4,19.4,16.7-.3.6-.7,1.2-1,1.7-.5.8-1,1.6-1.4,2.4-.6.9-1.1,1.8-1.6,2.5h0c-.2.4-.4.7-.6,1,0,0-.1.2-.2.3-.3.4-.5.7-.8,1-2.4,11-4.7,21.7-6.8,32.4,8.4,5.3,17.5,9.1,27.2,11.4,10,2.1,23.6,2,33.4-1.5,2-7.3,4.3-14.5,6.8-21.6-.1-.2-.2-.3-.3-.4-.1-.2-.3-.3-.4-.5-.2-.2-.4-.5-.6-.7-.4-.4-.8-.9-1.2-1.3,0-.1-.2-.2-.3-.3-.3-.3-.6-.7-.8-1,0,0-.1-.2-.2-.3-.9-1.2-1.6-2.5-2.2-3.9-.4-1.2-.6-2.5-.7-3.8,0-.2,0-.4,0-.6,0-.3,0-.7,0-1-.2-4.1-.1-8.3.3-12.4,15.9-4.6,30.1-24.6,32.6-30.2,1.2-2.2,2.3-4.5,3.2-6.9l.7.2c2.8.6,5.7,0,8-1.6,4.2-3.1,7.3-7.4,9.1-12.3,2.1-4.9,2.8-13,.5-17.6-1.4-2.8-4.3-4.6-7.4-4.7-2.4-.3-4.9.4-6.8,1.9-9.5-3.5-18.8-16.4-24-25.1Z" style="fill:#fff; stroke-width:0px;"/><path d="m138.5,294.6c-1.9,6.9-5.3,13.4-6.7,20.4-.8,3.1-.9,6.4-.4,9.6.6,2.8,1.4,5.5,2.6,8.1,2.3,5.3,7.6,9.6,12.4,12.5,5.6,3.4,11.9,5.5,18.4,6.1,2,0,3.7-1.7,3.7-3.7,0-2-1.7-3.6-3.7-3.7-5.2-.6-10.3-2.3-14.7-5.1-3.8-2.4-8.2-5.8-9.8-10.1-.9-2.1-1.5-4.4-1.9-6.6-.1-2.7.3-5.4,1.1-7.9,1.7-6,4.4-11.7,6-17.8,1.2-4.6-5.9-6.5-7.1-2h0Z" style="fill:#211715; stroke-width:0px;"/><path d="m247.5,360.3c12.5-.3,27.4-2.1,35.5-12.8,9.3-12.3.6-27.1,2.5-40.7.5-2-.7-3.9-2.6-4.5-2-.5-4,.6-4.5,2.6-1,6.8.2,13.3,1.1,20,.8,5.7,1.4,12.2-1.8,17.4-5.9,9.5-20.2,10.4-30.2,10.7-4.7.1-4.7,7.5,0,7.4h0Z" style="fill:#211715; stroke-width:0px;"/><path d="m229.4,390.7c-19.4,6.1-39.6.4-56.5-9.8-4.1-2.5-7.8,3.9-3.7,6.4,18.5,11.2,40.9,17.2,62.2,10.6,4.5-1.4,2.6-8.5-2-7.1h0Z" style="fill:#211715; stroke-width:0px;"/><path d="m228,346c-.7,5.5-.7,11.1,0,16.6.5,2.5,1.6,4.9,3.1,6.9,1.3,1.9,3.3,3.8,4.5,5.4,1.1,1.7,3.3,2.3,5,1.3,1.7-1,2.3-3.3,1.3-5-2.5-3.5-6.2-6.1-6.8-10.3-.6-4.9-.5-9.9.1-14.9,0-2-1.7-3.7-3.7-3.7-2,0-3.6,1.7-3.7,3.7h0Z" style="fill:#211715; stroke-width:0px;"/><path d="m156.1,263.6c-3.8-3.7-9.4-4.9-14.4-3.2-3.7,1.5-6.6,4.6-7.8,8.5-3,8.4-1.2,18.5,3.2,26,3.1,5.3,8.3,9.8,14.7,9.4,4.7-.3,4.7-7.6,0-7.4s-7.7-4-9.5-7.9c-1.5-3.3-2.4-6.8-2.5-10.4,0-2.1.2-4.2.7-6.3.3-1.3.8-2.5,1.6-3.5.4-.7-.6.6,0,0,.7-.7.4-.5,1.2-1,.7-.4,1.4-.6,2.2-.7,1.9-.3,3.9.4,5.3,1.8,3.4,3.4,8.6-1.9,5.2-5.2h0Z" style="fill:#211715; stroke-width:0px;"/><path d="m273.5,277.9c1.6-1.3,3.7-1.8,5.7-1.2.8.2,1.5.5,2.1.9-.3-.2.4.4.5.5.1.1.2.2.3.4-.2-.3-.3-.3-.1-.1,1.9,2.8,1.8,7,1.2,10.4-.6,3.7-2.1,7.3-4.2,10.4-2.1,3.2-5.7,7.2-9.9,6.3-2-.5-3.9.6-4.5,2.6-.5,2,.6,4,2.6,4.5,10.6,2.1,17.8-7.4,21.5-16.1,1.8-4.4,2.6-9.1,2.2-13.8,0-4-1.7-7.7-4.6-10.5-4.7-3.9-11.5-4.1-16.5-.7-1.7,1.1-2.3,3.3-1.3,5,1,1.7,3.3,2.3,5,1.3h0Z" style="fill:#211715; stroke-width:0px;"/><path d="m265.4,303.8c-2.6,8.1-6.8,15.6-12.5,22-6.6,7.7-15.1,15.7-25.6,17.3-2,.6-3.1,2.6-2.6,4.5.6,1.9,2.6,3.1,4.5,2.6,11.6-1.8,21.5-10.6,28.8-19.2,6.5-7.3,11.4-15.9,14.4-25.3,1.3-4.6-5.8-6.5-7.1-2h0Z" style="fill:#211715; stroke-width:0px;"/><path d="m148.2,297.1c3.6,22.4,19.1,46.6,42.5,51.8,4.6,1,6.6-6.1,2-7.1-21-4.6-34.1-26.6-37.3-46.6-.5-2-2.6-3.1-4.5-2.6-1.9.6-3.1,2.6-2.6,4.5h0Z" style="fill:#211715; stroke-width:0px;"/><path d="m259.4,190c-20.6-14.8-47-18.8-71.1-10.8-19.6,6.8-35.6,21.5-43.9,40.5-5.7,13.9-7.2,29.1-4.2,43.8.9,4.6,8,2.7,7.1-2-4-21.5,2-43.9,17.7-59.4,24.8-23.7,63-26.2,90.6-5.8,1.8,1,4,.4,5-1.3,1-1.8.4-4-1.3-5Z" style="fill:#211715; stroke-width:0px;"/><path d="m285,273.5c4.9-14.3,5.5-29.7,1.8-44.4-3.2-11.6-9.2-22.1-17.6-30.7-3.3-3.4-8.5,1.8-5.2,5.2,7.5,7.7,12.9,17.1,15.7,27.4,1.6,6.3,2.4,12.7,2.2,19.2-.3,7.3-1.6,14.4-4,21.3-1.5,4.5,5.6,6.4,7.1,2h0Z" style="fill:#211715; stroke-width:0px;"/><path d="m199,319c3.5,2.1,7.5,3.2,11.6,3.4,4.1.5,8.2-.3,11.8-2.3,1.8-1,2.3-3.3,1.3-5s-3.3-2.3-5-1.3h0c-.4.3-.9.4-1.3.7-1.4.7-1.9,2.5-1.2,3.9.7,1.4,2.5,1.9,3.9,1.2,1.4-.7,1.9-2.5,1.2-3.9-.7-1.3-2.2-1.9-3.6-1.4-.1,0-.3.1-.4.2-.4.1-.7.2-1.1.3-.4.1-.9.2-1.3.3-.7.1.6,0,0,0-.2,0-.5,0-.7,0-1.2,0-2.5,0-3.7,0-.3,0-.6,0-.9,0s-.8,0-.2,0c-.6,0-1.1-.2-1.7-.3-.9-.2-1.7-.4-2.6-.7-.2,0-.4-.2-.6-.2.2,0,.8.4.2,0-.3-.1-.6-.3-.9-.4-.4-.2-.9-.5-1.3-.7-1.8-1-4-.4-5,1.3s-.4,4,1.3,5h0Z" style="fill:#211715; stroke-width:0px;"/><path d="m210.5,292.8c.3,1.4.5,2.8.7,4.2v-1c0,.7,0,1.4,0,2.2v-1c.1.1,0,.3,0,.4l.4-.9c0,0,0,.1-.1.2l.6-.7c0,0-.1.1-.2.2l.7-.6c0,0-.2.1-.3.1l.9-.4c-.3.1-.5.2-.8.2h1c-.3-.1-.5-.1-.8-.1h1c-.4,0-.7,0-1-.1-1-.2-2-.1-2.8.4-1.8,1-2.3,3.3-1.3,5,0,0,0,0,0,0,.5.8,1.3,1.4,2.2,1.7.7.2,1.3.3,2,.4.8,0,1.7,0,2.4-.3.8-.2,1.5-.7,2.2-1.3.5-.6.9-1.2,1.2-2,.2-.7.3-1.5.2-2.3-.2-2.2-.6-4.3-1-6.5-.3-.9-.9-1.7-1.7-2.2-1.8-1-4-.4-5,1.3-.5.9-.6,1.9-.4,2.8h0Z" style="fill:#211715; stroke-width:0px;"/><path d="m181.3,274.1c-1.2,3-1.1,10.2,4.9,11.2,8,.5,9-8,6.6-12.2-2-3.5-8.3-5.3-11.5,1.1Z" style="fill:#211715; stroke-width:0px;"/><path d="m245,278.7c.8,3.2-.4,10.2-6.5,10.4-8-.6-7.8-9.2-4.8-13.1,2.4-3.1,9-4.1,11.3,2.7Z" style="fill:#211715; stroke-width:0px;"/><path d="m241.9,247.1c3.3,6,7,11.7,11.3,17,4.7,5.8,10.3,11.5,17.5,14.2,2,.5,4-.6,4.5-2.6.5-2-.6-4-2.6-4.5-.4-.2-.4-.2,0,0-.2,0-.3-.1-.5-.2-.4-.2-.7-.4-1.1-.6-.6-.3-1.3-.7-1.9-1.1-1.3-.8-2.5-1.7-3.6-2.8-2.7-2.4-5.2-5.1-7.4-8-3.7-4.8-7.1-9.9-9.9-15.2-2.3-4.2-8.6-.5-6.4,3.7h0Z" style="fill:#211715; stroke-width:0px;"/><path d="m188.5,229.5c-11.9,11.7-23.9,23.4-36.8,34-1.4,1.4-1.4,3.8,0,5.2,1.5,1.4,3.7,1.4,5.2,0,12.9-10.6,24.9-22.3,36.8-34,3.4-3.3-1.8-8.5-5.2-5.2h0Z" style="fill:#211715; stroke-width:0px;"/><path d="m233,222.5c-8.4,11.1-19.4,20-32,26-3.1,1.4-6.2,2.6-9.5,3.7-.5.1-.9.3-1.4.4-.9.2-.9.3-.2.2.9,0,1.7.5,2.1,1.3.2.5.2.6,0,.2,0-.1,0-.2,0-.3,0-.5,0-1.1,0-1.6.3-5.2,1.8-10.3,2.5-15.5,0-2-1.7-3.7-3.7-3.7-2,0-3.6,1.7-3.7,3.7-.5,4.2-1.9,9.4-2.3,14.1-.4,3.8.2,9.4,5.3,9.2,3-.1,6.4-1.8,9.1-2.9,3-1.2,6-2.6,8.9-4.1,5.6-3,10.9-6.6,15.8-10.7,5.7-4.8,10.8-10.3,15.3-16.3,1-1.8.4-4-1.3-5-1.8-1-4-.4-5,1.3h0Z" style="fill:#211715; stroke-width:0px;"/><path d="m211.4,219.9c24.5,1.4,48.8,5.2,72.6,11.1,1.5.3,2.7,1.4,3.1,2.9,1.8,8.2,2,16.7.8,25-.6,2.2-2.9,3.4-5.1,2.8-.1,0-.3,0-.4-.2-23.6-7.7-40.4-10.2-75.1-12.8-14.1-1.1-46.2-1.5-63.7-.8-2.2.2-4.2-1.3-4.5-3.5-.5-5.9,0-11.8,1.8-17.5.5-1.5,1.1-3,1.8-4.5.7-1.1,1.9-1.8,3.2-1.9,9.7-.7,45.9-1.9,65.5-.6Z" style="fill:#fff; stroke-width:0px;"/><path d="m211.4,223.5c13.1.9,26.2,2.2,39.1,4.3,6,1,12.1,2.1,18.1,3.4,2.7.6,5.5,1.2,8.2,1.8,1.5.4,3.1.7,4.6,1.1,2,.5,2.1.2,2.4,2.2,1.2,6.8,1.4,13.8.6,20.6-.1,1,.3,1.1-.8,1-1.1-.2-2.2-.6-3.3-1.1-2.5-.8-5-1.6-7.6-2.3-9.3-2.6-18.7-4.6-28.3-5.9-21.7-3-43.5-4.6-65.4-4.8-10.6-.2-21.2-.2-31.8,0-1,0-3.9.7-4.6-.1-.5-.6-.1-3.5-.1-4.3,0-1.7,0-3.4.3-5.1.3-2.9,1-5.7,2.1-8.4.3-.8.6-1.7,1.2-2,.7-.1,1.4-.2,2-.1,21-1.4,42.1-1.6,63.2-.5,4.7.3,4.7-7.1,0-7.4-20.8-1.1-41.6-.9-62.3.4-1.8,0-3.7.2-5.5.6-3.5,1.2-5,4.6-6,7.9-1.1,3.3-1.7,6.7-2.1,10.2-.5,3.4-.5,6.9.1,10.3,1.6,6.8,8.9,5.9,14.3,5.7,5.8-.1,11.5-.2,17.3-.1,24.1-.1,48.1,1.3,72,4.2,10.5,1.3,20.9,3.4,31.1,6.2,2.6.7,5.2,1.5,7.8,2.3,2.9.9,5.7,2,8.8.9,3.7-1.4,4.5-4.6,5-8.2.5-3.9.6-7.8.4-11.7-.2-3.8-.7-7.6-1.4-11.3-.8-3.4-3.6-6-7-6.5-6.7-1.6-13.4-3.1-20.1-4.4-13.4-2.6-27-4.5-40.7-5.7-3.9-.3-7.7-.6-11.6-.9-4.7-.3-4.7,7,0,7.4Z" style="fill:#211715; stroke-width:0px;"/><path d="m468.1,337.9c.3.2.6.3.9.4,6.1-6.9,11.6-14.3,16.3-22.2-11.5-4.3-18.4-6.7-26.4-13.3l-1.3-1.1c-3.3,5.8-7.2,11.2-11.7,16.1l7.7,8.5c4.2,4.6,9.1,8.4,14.5,11.4Z" style="fill:#fff; stroke-width:0px;"/><path d="m709.1,344.1c-12.1-6.9-23-15.6-32.5-25.8l-9-10.5c.2-.7.4-1.4.6-2.2h.8c2.9.3,5.7-.7,7.9-2.7,1.8-1.6,3.2-3.5,4.4-5.6l2.6,2.9c12.6,14.2,26.9,17.9,43.8,22-3.8,8.4-8.4,16.4-13.6,23.9-1.7-.6-3.3-1.3-4.9-2.2Z" style="fill:#fff; stroke-width:0px;"/><path d="m479.1,257.6c-1.6-2.8-4.6-4.4-7.8-4.3-2.5-.1-5,.7-6.9,2.4,0,0,1.7-53.8-62.5-53.8s-58.3,52.8-58.3,52.8c-1.9-1.7-4.3-2.6-6.8-2.5-3.2-.2-6.2,1.4-7.9,4.2-2.7,4.5-2.7,12.8-.9,17.9,1.4,5.1,4.3,9.7,8.3,13.3,2.4,2,5.6,2.8,8.7,2.2,2.7,9.2,7.3,17.7,13.4,25.1,4.9,6.2,11.2,11.2,18.3,14.7-.2,2.7-.9,5.3-2,7.7-1,1.8-2.3,3.3-3.9,4.7-3.9,3.6-8.2,6.7-12.8,9.4h0c6.8,11.9,27.1,23.9,47.1,24.1,23.9.2,39.6-14.4,46.2-23.3-4.6-2.7-8.8-5.9-12.7-9.6-1.5-1.3-2.8-2.9-3.8-4.7-1.2-2.8-1.9-5.8-1.9-8.9,13.9-7.5,24.9-25.6,26.9-30.9,1.1-2.4,2-4.8,2.8-7.3h.8c2.9.5,5.8-.3,8.1-2,4-3.5,7-8,8.5-13.1,1.8-5.1,2-13.4-.6-17.9Z" style="fill:#fff; stroke-width:0px;"/><path d="m48.9,337.6c.7-2.5,2.7-4.3,5.3-4.8,3.5-1.1,7.3.4,9.1,3.6,3.1,5.4,3.2,19.5.2,24.6-.4.7-.9,1.3-1.5,1.7,0,2,.1,3.3.1,3.3.2,4.4,1.5,12.2-.4,16.8-3,7-7.4,11.3-13,13.2,0,1.2-.1,2.1-.1,2.1,0,1.4-.1,3.7-.1,6.1-10.9,1.3-21.8,3-32.7,4.9-1.1-3.5-2.7-10.7-2.3-14.8.3-3.8-2.4-7.1-4.4-10.3-2.9-4.3-4.7-9.2-5.3-14.3,0-5.4.5-10.8,1.7-16.1,2-9.2,6-19.4,9.9-22.6,6.6-6.1,13-3.8,21.1-1.4,2.1.6,10.4,3.8,12.1,7.5l.4.5Z" style="fill:#fff; stroke-width:0px;"/><path d="m29.5,315.6c-1.6-24.5-5.4-80.6-5.6-106.3,0-2.4,1.8-4.4,4.2-4.6,11.1-1.2,22.3-.9,33.3.9,11.4,1.6,22.5,4.4,33.3,8.5,2.4,1,3.6,3.6,2.8,6.1-7.9,21.8-29.1,74.6-38,99.8l-30-4.3Z" style="fill:#ffda71; stroke-width:0px;"/><path d="m44.8,398c-.3,5.3,0,10.6-.3,15.8,0,2,1.7,3.7,3.7,3.7,2,0,3.6-1.7,3.7-3.7.3-5.3,0-10.6.3-15.8,0-2-1.7-3.7-3.7-3.7-2,0-3.6,1.7-3.7,3.7Z" style="fill:#211715; stroke-width:0px;"/><path d="m47.3,400.2c7-1.8,12.9-6.5,16.2-12.9,1.9-3.4,2.9-7.2,2.8-11.1,0-3.4-.5-6.8-.6-10.1,0-2-1.7-3.6-3.7-3.7-2,0-3.7,1.7-3.7,3.7.1,3,.6,6,.6,9,.2,2.8-.3,5.6-1.6,8.2-2.3,5-6.7,8.7-12,9.9-4.6,1.1-2.7,8.2,2,7.1h0Z" style="fill:#211715; stroke-width:0px;"/><path d="m25,347.8c3.1,0,6.1.1,9.2.3,3.3.4,6.7.6,10.1.4,5.8-.6,9.6-5,8.2-10.9-1.1-4.7-5.5-7.5-9.6-9.4-4.3-2-8.9-3.5-13.6-4.3-5.4-1.2-11.1,0-15.5,3.5-4.2,3.3-6.4,8.2-8.3,13.1-2.2,5.7-3.8,11.7-4.6,17.8-.8,5.7-1.5,11.5.1,17.1,1.1,3.7,2.8,7.2,4.8,10.4,1.4,2.3,3.8,4.9,3.9,7.7,0,3,.3,6,.7,9,.5,2.7,1.1,5.4,1.9,8,1.4,4.5,8.5,2.6,7.1-2-1.3-3.9-2.1-8-2.3-12.1.1-2.2,0-4.4-.6-6.6-1-2.4-2.2-4.7-3.7-6.8-2.8-4.3-5.3-9.2-5.4-14.4,0-4.5.5-9.1,1.5-13.5,1-5.1,2.6-10.1,4.7-14.9,1.7-3.6,3.8-7.3,7.7-8.9s8.3,0,12.1,1.1c3.1.8,6.1,2.1,8.9,3.7,1.7,1,5.5,4.6,1.5,5-3.2.1-6.3,0-9.5-.4-3.1-.2-6.1-.3-9.2-.3-4.7-.1-4.7,7.2,0,7.4h0Z" style="fill:#211715; stroke-width:0px;"/><path d="m41.4,349.1c.2,0,.4.1.6.2-.4-.2-.4-.2,0,0,.3.2.7.4,1,.6-.7-.5,0,0,0,.1s.2.3.4.4c-.3-.4-.3-.4-.1-.1,0,.2.5.7.5.9l-.2-.4c0,.2.1.3.1.5.3,1,0-.4,0,.2,0,.2,0,.5,0,.7,0-.6.1-.7,0-.3,0,.1,0,.3-.1.4,0,.2-.1.3-.2.5.2-1,.4-.8.2-.4,0,.1-.2.3-.2.5-.1.2-.2.3-.3.5.1-.2.6-.7.2-.3,0,0-.5.4-.5.5.5-.4.6-.5.3-.2,0,0-.2.1-.2.2-.2.1-.4.2-.6.4-.5.3.8-.3-.2,0-.6.2-1.3.4-1.9.4.9-.1-.5,0-.7,0-.4,0-.7,0-1.1,0h-2.5c-3.4,0-6.8-.2-10.2-.3-2,0-3.7,1.7-3.7,3.7,0,2,1.7,3.6,3.7,3.7,3.1.1,6.3.2,9.4.3,3.1.3,6.2,0,9.1-.8,4.8-1.5,7.7-6.4,6.7-11.3-1-3.6-3.8-6.5-7.5-7.5-2-.5-4,.6-4.5,2.6s.6,4,2.6,4.5h0Z" style="fill:#211715; stroke-width:0px;"/><path d="m37.6,361.5c.3.1,1.4.5,1.4.8,0-.2-.5-.4,0,0,.2.2.4.4.6.6.3.3-.3-.6,0,0,.1.2.3.5.4.7.4.6-.1-.6,0,.1,0,.1.3.8.1.3-.2-.5,0,.1,0,.3,0,.7.2-.6,0,.1,0,.1,0,.3-.1.4,0,.3,0,.2.1-.2,0,.2-.3.5-.4.7-.3.6.3-.2,0,0-.2.2-.3.3-.5.5-.1.1-.3.3-.4.4l.3-.2c0,.1-.7.4-.8.5-.2.1-.5.3-.7.4-.1,0-.3.1-.4.2.3-.1.4-.2.1,0-.6.2-1.1.4-1.7.6-1.2.3-2.4.8-3.5,1.3-1.5.8-2.6,2.1-3.1,3.7-.4,1.7-.4,3.4,0,5,.5,2,2.6,3.1,4.5,2.6,1.9-.6,3.1-2.6,2.6-4.5,0-.3,0-.9,0-.3,0-.3,0-.6,0-.9,0,.2-.3.9,0,.5-.3.4-.3.5,0,.2l-.3.3c.2,0,.3-.2.5-.3l-.4.2c.3-.1.5-.2.8-.3.6-.2,1.2-.3,1.7-.6,3-.8,5.6-2.6,7.6-5,1.8-2.4,2.2-5.5,1.2-8.3-1-2.7-3.1-4.9-5.7-6.2-1.8-1-4-.4-5,1.3s-.4,4,1.3,5h0Z" style="fill:#211715; stroke-width:0px;"/><path d="m58,367.5c3.7,0,7.2-2,9-5.3,1.2-2.7,1.9-5.5,2.1-8.4.8-5.9.2-11.8-1.8-17.4-1.2-3.4-3.9-6-7.4-7.1-3-.8-6.1-.5-8.9.7-6.7,3-7.5,12.4-7,18.8.7,8,4.3,18.7,14,18.7,4.7,0,4.7-7.4,0-7.4-1.8,0-3.5-1.2-4.2-2.9-1.3-2.3-2.1-4.9-2.4-7.5-.3-2.4-.3-4.8,0-7.1.2-1.2.5-2.4.8-3.6.2-.9.7-1.6,1.4-2.1.6-.3,1.3-.5,1.9-.6.6-.1,0,0-.2,0,.2,0,.5,0,.7,0,.5,0,1,0,1.4,0-1-.1.9.3.6.2.3.2.5.3.8.5.3.3.6.6.8.9.2.2.8,1.6.5.8,1.5,4,2,8.2,1.6,12.4,0,2.2-.3,4.4-1,6.6,0,.3-.7,1.6-.3.8,0,.2-.1.3-.2.5,0,0-.5.8-.2.4-.6.6-1.4.9-2.2.8-2,0-3.6,1.7-3.7,3.7,0,2,1.7,3.7,3.7,3.7Z" style="fill:#211715; stroke-width:0px;"/><path d="m33.2,315.6c-1.1-17.3-2.3-34.7-3.3-52-.6-9.9-1.1-19.8-1.6-29.6-.4-8-.9-16-.8-24,0-1.9,1.4-1.7,3.1-1.8,3.2-.3,6.4-.4,9.6-.5,6.2,0,12.4.4,18.5,1.2,5.8.8,11.6,1.8,17.3,3.2,5.7,1.2,11.3,2.9,16.7,5.1,1.7.7,1.4,1.5.8,3-.6,1.6-1.2,3.2-1.8,4.8-1.4,3.6-2.7,7.3-4.1,10.9-3.3,8.7-6.7,17.4-10.1,26.1-7.3,18.9-14.8,37.8-21.6,57-1.6,4.5,5.5,6.4,7.1,2,6.4-18,13.4-35.8,20.3-53.6,3.6-9.3,7.2-18.6,10.8-27.9,1.5-3.9,3-7.7,4.4-11.6,1.4-3.6,3.7-7.8,2.6-11.7-1.7-5.9-9.5-7.3-14.6-8.9-6-1.8-12.2-3.3-18.4-4.3-12.6-2.4-25.5-3.1-38.3-2.1-2.7,0-5.3.9-7.3,2.7-1.8,2.1-2.6,4.8-2.3,7.4,0,4,.2,7.9.3,11.9.3,9.8.8,19.6,1.4,29.4,1.1,21.1,2.5,42.2,3.9,63.3.3,4.7,7.7,4.7,7.4,0h0Z" style="fill:#211715; stroke-width:0px;"/><path d="m678.6,568h-120.7c-4.5-24.4-10.5-56.8-16.1-84.3-16.7,12.2-28.3,21.6-45.6,35.8,0,0-2.3,1.8-5.1,4.1-.3-6.3-.5-12.2-.6-16.9-.6-23.1-2.5-50.9-3.2-74.6,1.1-1.2,1.9-2,1.9-2,8.1-8.5,25.4-34.2,36.4-42.6,13.4-10.2,28.2-18.4,43.9-24.4,4.1-2.9,10-8.2,14.7-12.5,7.9,4.9,24.3,15,32.2,19.7.1,0,3.6-1.3,3.9-1.4,9.8-7.8,18.7-16.5,26.7-26.1.1,0,.2.2.2.2,0,0,7.7,6.2,11.6,8.9,15.9,8.5,45.1,19.8,54,22.7l70.5,55.6c1,0,2,0,3.4.1,1.4,0,2.7.9,3.3,2.2,1.8,4.2,3.2,8.6,4.1,13,1.9,9.8,2.5,19.9,1.8,29.9-1,13.4-2.2,24.4-10.3,35-7.8,10.3-20.2,16.5-31.9,10.2-4.6-2.3-8.6-5.5-11.8-9.5-8.2-10.4-15.9-21.2-23.2-32.3,5.5,26.5,12.8,59.4,19.5,89.3h-59.7Z" style="fill:#7abee6; stroke-width:0px;"/><path d="m171.1,359.3c1.7-.5,3.3-1.2,4.8-2,1.6-.8,3.1-1.8,4.3-3,1.4-1.5,2.5-3.2,3.6-4.9.6-.9,1.1-1.7,1.6-2.6,1-1.2,1.6-2.6,1.8-4.1,0-2-1.6-3.7-3.7-3.7s-3.7,1.6-3.7,3.7h0s.5-1.8.5-1.8c-1,1.6-1.9,3.3-3,4.8-.4.7-.9,1.4-1.4,2.1-.2.3-.5.7-.7,1-.2.3.6-.7,0,0-.1.2-.3.3-.4.5s-.3.2-.4.4c-.6.6.7-.5.3-.2-.3.2-.5.4-.8.5-.6.4-1.2.7-1.8,1s-1.3.6-2,.9c1.2-.5,0,0-.2,0-.3,0-.5.2-.8.3-2,.5-3.1,2.6-2.6,4.5.5,2,2.6,3.1,4.5,2.6h0Z" style="fill:#211715; stroke-width:0px;"/><path d="m444.8,173.5c-25.6-16.2-58.3-15.7-83.4,1.1-18.2,12.4-29.5,32.7-30.4,54.7-.3,7.8.6,15.7,2.8,23.2,1-.3,1.9-.4,2.9-.4,2.5,0,4.9.8,6.8,2.5l9.7-7.8c7.3-7.8,20.2-19.5,29.2-24,1.1-.5,2.4.2,2.8,1.9.3,1.3.4,2.7.2,4.1-.2,1.2.6,2.3,1.8,2.5.4,0,.9,0,1.3-.2,6.4-3.4,17.9-10.3,26.1-13.5l12,1.5c4,1.7,7.7,4,11,6.8,7.2,6.1,14.2,14.6,17.2,22.1l9.5,7.5c1.9-1.7,4.3-2.5,6.9-2.4.9,0,1.9.2,2.8.4l.2-1c2.1-7.2,3-14.6,2.8-22.1-.8-23.6-11.3-39.7-22.9-50l-9.3-7.1Z" style="fill:#85807f; stroke-width:0px;"/><path d="m493.3,568l-.3-5c-.6-15.7-2-41.5-2.4-56.3-.6-23.2-2.5-51.4-3.2-75.1,1.1-.9,1.9-1.5,1.9-1.5,8.1-8.5,25.4-34.2,36.4-42.6,4.4-3.4,9.1-6.6,13.9-9.5-8.2-4.9-15.7-9.4-15.7-9.4-18.7-9.8-38.9-16.5-59.7-19.8,0,0-33.2-4.5-58.9-4.2-25.2.3-61.5,4.8-61.5,4.8-15.4,2.2-46.7,12.7-60.8,22.5l-15.8,8.6c3.9,2.4,7.7,5,11.2,7.9,6.7,5.5,12.9,13.4,19,20.5,7.3,8.4,11.4,14.4,19.2,22.3-.5,24.5-2.5,50.4-3.1,75.5-.3,14.8-1.7,40.6-2.4,56.3v5c-.1,0,182.4,0,182.4,0Z" style="fill:#fff; stroke-width:0px;"/><path d="m195.8,568c6.3-35,14.8-83.1,20.6-109.4,6.7-30.5,12.8-62,23.7-91.4,13.2,5.7,26.8,12,38,21.2,6.7,5.5,12.9,13.4,19,20.5,7.3,8.4,11.4,14.4,19.3,22.3-.5,24.7-2.6,50.7-3.2,76-18.3-14.2-36.4-29.2-55-41.7-5.9,31.9-12.8,72.6-17.2,99.6l-.4,2.9h-44.8Z" style="fill:#f8b8b4; stroke-width:0px;"/><path d="m199.3,569c4.5-25,9-50,13.7-74.9,4.7-24.7,9.9-49.3,15.6-73.8,3.7-16.5,8.3-32.8,13.9-48.8,1.6-4.5-5.5-6.4-7.1-2-10,28.2-15.9,57.7-22.3,86.9-5,22.8-9.1,45.8-13.3,68.7-2.5,14-5.1,28-7.6,41.9-.5,2,.7,3.9,2.6,4.5,2,.5,4-.6,4.5-2.6h0Z" style="fill:#211715; stroke-width:0px;"/><path d="m244.2,569c3.9-25.6,8.4-51.2,12.9-76.7,1.4-7.8,2.8-15.6,4.2-23.4.9-4.6-6.2-6.6-7.1-2-5.1,27.9-9.9,55.8-14.5,83.7-.9,5.5-1.8,11-2.7,16.5-.5,2,.7,3.9,2.6,4.5,2,.5,4-.6,4.5-2.6h0Z" style="fill:#211715; stroke-width:0px;"/><path d="m113.4,568c13.5-27.5,28.6-58.5,35.5-79.2,11.8-47.3,19-93,30.1-142.5-16,9.3-33.6,15.3-51.9,17.7-9.5,2.7-18.1,7.6-25.3,14.3l-23.9,23.7-12.5.5c-18.9,1.6-37.6,4.2-56.2,7.9-2.9.6-5.1,3.1-5.2,6-1,27.7,5.2,66.8,14.7,82.5,4.6,7.6,11.8,14.4,19.3,14.1,11.1-.4,17.2-4.8,26.2-11.4,9.8-7.2,20.5-17.9,33-31.2-2.5,10.6-4.7,19.1-6.2,23.5-6.1,18.1-39.7,61.4-49.4,74.1h71.8Z" style="fill:#f8b8b4; stroke-width:0px;"/><path d="m779,379.3c-1-1.3-2.1-2.5-3.4-3.6-7-4.3-13.1-8.1-19.8-11.3-1.6-.7-3.2-1.4-4.9-2-2.7-.9-5.7-.8-8.4.5-2.2,1-5.1,5-4.3,7.7l-6,.8c-1.7-.3-3.2-1.2-4.9-1.6-3.6-.6-7.3.8-9.7,3.7-2.3,2.8-4,6.1-4.9,9.6-.9,2.7-.9,5.6-.1,8.4.5,1.8,1.9,3.2,3.6,3.8,2.5.8,5.2.6,7.5-.8l-.5,4.2c-.9.9-1.6,1.9-2.1,3-1.2,3-.6,6.3,1.6,8.7,2.5,2.6,5.1,5,7.9,7.3l3.2-3.4c3,2.5,5.5,5.7,5.8,8.9,2,17.5,6.3,24.6,13.2,26.5,5.5,1.4,11.2,1.7,16.7.7,1.5-.4,8.3-2.3,9.3-3.5,1.9-2.3,4.1-4.1,4.9-7.2.5-2.6.5-5.3,0-7.8-.6-3.1-1.5-11-1.9-16.3-.5-7-.3-14,.6-21,.9-4.3.3-8.8-1.7-12.8-.5-.9-1-1.7-1.6-2.4Z" style="fill:#fff; stroke-width:0px;"/><path d="m65.5,398.8c-10.5.8-20.9,2.1-31.2,3.6-5.4.8-10.8,1.7-16.1,2.6-2.4.4-4.8.9-7.2,1.3-2.2.2-4.4,1-6.3,2.2-3.8,2.7-4.2,6.8-4.3,11.1,0,3.8,0,7.6.2,11.4.4,8.4,1.2,16.8,2.4,25.1,2,14.1,4.7,29.1,11.2,41.9,3.5,6.9,9.1,13.9,16.4,17.1,7.5,3.3,16.6,1.1,23.6-2.4,7.8-4.2,15-9.5,21.4-15.5,8.1-7.1,15.5-14.8,22.9-22.6,3.2-3.4-1.9-8.7-5.2-5.2-11.1,11.7-22.3,23.3-35.6,32.5-5.8,4.1-11.9,7.2-19.2,7.5-7.4.3-13.2-6.7-16.6-12.5-2.6-4.7-4.6-9.6-6-14.8-2-6.7-3.5-13.6-4.7-20.5-2.6-14.6-3.7-29.4-3.4-44.2-.2-1.4.5-2.7,1.8-3.2,2.4-.7,4.9-1.2,7.5-1.4,5.4-1,10.7-1.9,16.1-2.7,10.8-1.6,21.6-2.9,32.4-3.8,4.7-.4,4.7-7.7,0-7.4h0Z" style="fill:#211715; stroke-width:0px;"/><path d="m194.2,556c-11.4,1.2-23.2,0-34.5-1.5-11.7-1.5-23.9-3.4-34.9-7.8-2-.5-4,.6-4.5,2.6-.5,2,.6,3.9,2.6,4.5,11.4,4.6,24,6.4,36.2,8,11.5,1.5,23.5,2.8,35.1,1.6,2,0,3.6-1.7,3.7-3.7,0-2-1.7-3.7-3.7-3.7h0Z" style="fill:#211715; stroke-width:0px;"/><path d="m80.5,404.5l17.4-17.3c5.1-5,9.8-9.9,16-13.6,2.9-1.8,5.9-3.3,9-4.5,3.4-1.2,6.9-2,10.4-2.4,7.4-1.3,14.6-3.1,21.7-5.5,8-2.8,15.8-6.2,23.2-10.3,4.1-2.3.4-8.6-3.7-6.4-13.2,7.3-27.5,12.3-42.4,14.9-3.6.5-7.1,1.2-10.5,2.3-3.5,1.3-6.9,2.9-10.2,4.7-6,3.6-11.5,8-16.3,13l-20,19.9c-3.4,3.3,1.8,8.6,5.2,5.2Z" style="fill:#211715; stroke-width:0px;"/><path d="m643,341.7c-7.6,9-16,17.2-25.3,24.5-1.2,1.2-1.4,3-.6,4.5,2.5,3.1,5.4,6,8.6,8.5,3.7,3.3,7.7,6.3,12,9,1.4.8,3.3.6,4.5-.6,7.9-9,13.6-19.8,18.7-30.6,1-1.8.4-4-1.3-5-1.8-1-4-.4-5,1.3-4.8,10.2-10,20.6-17.5,29.1l4.5-.6c-3.7-2.3-7.2-4.9-10.5-7.8-1.7-1.4-3.3-2.9-4.9-4.4-.6-.6-1.2-1.1-1.7-1.7-.2-.2-.3-.4-.5-.6-.3-.3.7,1-.3-.4l-.6,4.5c9.2-7.3,17.7-15.5,25.3-24.5,1.4-1.5,1.4-3.7,0-5.2-1.4-1.4-3.8-1.4-5.2,0h0Z" style="fill:#211715; stroke-width:0px;"/><path d="m583.2,354.2c10.4,6.4,20.9,12.9,31.4,19.2l-1.3-5c-4.3,6.2-9.2,11.9-14.7,17l4.5-.6c-9.2-6.9-17.8-14.6-25.5-23.2-3.2-3.5-8.3,1.7-5.2,5.2,8.1,9,17.2,17.2,27,24.3,1.4.8,3.3.6,4.5-.6,6-5.6,11.3-11.8,15.9-18.5,1-1.8.4-4-1.3-5-10.5-6.3-20.9-12.8-31.4-19.2-4-2.5-7.8,3.9-3.7,6.4h0Z" style="fill:#211715; stroke-width:0px;"/><path d="m783.4,433.8c.8,0,2.8-.3,3.4.1,0,0,.6,1.3.8,1.8,1,2.6,1.8,5.2,2.5,7.8,1.3,5.1,2,10.4,2.3,15.7.8,10.7.2,21.5-2,32-2.1,9.5-7,18.8-15.2,24.3-3.7,2.6-8.1,4-12.6,3.8-4.7-.3-9.1-3-12.7-5.8-5.1-3.9-8.8-9.8-12.6-15-4.2-5.7-8.3-11.5-12.3-17.4-2.6-3.9-9-.2-6.4,3.7,4.1,6.1,8.4,12.2,12.8,18.1,3.9,5.2,7.6,11.1,12.7,15.3,4.4,4,9.7,6.7,15.5,8,5.6.9,11.3,0,16.4-2.7,10.6-5.4,17.9-16.5,20.9-27.7,1.4-5.7,2.3-11.5,2.6-17.4.6-6.3.7-12.6.3-18.9-.3-6.9-1.5-13.8-3.3-20.5-.9-3.2-1.9-7.3-4-9.8-2.4-2.9-5.7-2.7-9.1-2.8-4.7-.2-4.7,7.1,0,7.4h0Z" style="fill:#211715; stroke-width:0px;"/><path d="m713.8,371c-8.3-2.8-16.5-6.1-24.7-9.4-5.2-2.1-10.4-4.4-15.6-6.7-4.6-2.1-9.8-3.9-13.8-6.9-3.4-2.5-6.6-5.1-9.9-7.7-1.5-1.4-3.7-1.4-5.2,0-1.4,1.4-1.4,3.8,0,5.2,3.1,2.5,6.3,5,9.5,7.4,4.2,2.9,8.7,5.4,13.4,7.3,10.5,4.8,21.2,9.2,32,13.4,4.1,1.6,8.2,3.1,12.4,4.5,4.5,1.5,6.4-5.6,2-7.1h0Z" style="fill:#211715; stroke-width:0px;"/><path d="m741.8,369.8c0-2.7,2.9-4.3,5.3-4.3,3.5-.1,7.2,2.2,10.2,3.7,3.4,1.8,6.8,3.8,10.1,5.8,1.7,1.1,3.5,2.1,5.2,3.2.5.3.9.6,1.4.9.5.5,1.1,1.1,1.5,1.6,1.7,2,2.9,4.5,3.4,7.1.3,3,0,6.1-.6,9.1-.6,5.9-.7,11.9-.3,17.8.4,6,1.1,12.1,2.1,18,.5,3.2.5,6.3-1.7,8.9-.5.6-1,1.2-1.6,1.8-.2.3-.4.5-.7.8.5-.5.4-.3.1,0-.8.4-1.6.8-2.4,1-4.8,1.8-9.9,2.4-14.9,1.9-1.6-.2-3.2-.4-4.8-.9-.4-.1-.9-.2-1.3-.4-.5-.2,0,.1-.7-.3-1.2-.6-2.2-1.5-3-2.5-3.6-4.6-4.6-11.1-5.4-16.7-.6-4-1-7.3-3.5-10.6-2.6-3.3-5.9-6-9.7-7.8-4.2-2.2-7.9,4.2-3.7,6.4,3.5,1.6,6.4,4.1,8.5,7.3.7,1.7,1.1,3.4,1.1,5.2.3,2.1.6,4.2,1.1,6.2,1.2,5.6,3,11.3,6.8,15.6,3.9,4.4,9.5,5.5,15.1,6,5.9.5,11.9-.3,17.5-2.5,6.8-2.6,11.2-9.3,10.9-16.6-.1-3.3-.9-6.6-1.3-9.8-.4-3.7-.8-7.3-1.1-11-.5-6.3-.3-12.7.6-19,1.5-7.5-.7-15.2-6-20.8-3-3.2-7.6-5.3-11.3-7.5-4.3-2.7-8.8-5-13.4-7-4.6-1.9-9.4-2.8-14.1-.5-3.9,2-6.4,5.9-6.6,10.3,0,4.7,7.3,4.7,7.4,0h0Z" style="fill:#211715; stroke-width:0px;"/><path d="m759.1,378.9c-4.3-2.3-8.6-4.5-13-6.6-1.5-.8-3.1-1.6-4.7-2.1-3.9-1.1-8.1.2-10.6,3.4-2.8,3.6-3.2,8.6-.9,12.6,1,1.8,3.3,2.3,5,1.3,1.8-1,2.3-3.3,1.3-5-.1-.2-.2-.4-.3-.6.1.4.1.3,0,0,0-.2-.1-.5-.2-.7,0,.3,0,.4,0,0,0-.4,0-.9,0-1.3,0,.6.1-.5.2-.7,0-.2.1-.4.2-.5-.1.3,0,.2.1-.2.1-.2.2-.4.4-.6-.2.3-.2.3,0,0,.1-.1.9-.6.3-.3.2-.1.4-.2.6-.3-.4.1-.4.1,0,0,.2,0,1.1-.2.3-.1.2,0,1.5,0,.8,0,.4,0,.7.2,1.1.3.5.1-1-.5-.5-.2.7.3,1.4.6,2.1,1,4.7,2.3,9.4,4.7,14,7.1,1.8,1,4,.4,5-1.3,1-1.8.4-4-1.3-5h0Z" style="fill:#211715; stroke-width:0px;"/><path d="m748,387.4c-3.9-1.8-8-3.4-12.2-4.5-1.9-.7-3.9-1-5.9-.9-2.2.3-4.2,1.4-5.7,3-3.1,3.5-3.3,8.8-.5,12.5,2.1,2.2,4.6,4,7.5,5.1,2.9,1.4,5.9,2.6,8.8,3.9,1.8,1,4,.4,5-1.3,1-1.8.4-4-1.3-5-4.4-1.7-8.6-3.7-12.6-6-.3-.2-.6-.4-.9-.6-.1,0-.6-.4,0,0-.1,0-.2-.2-.3-.3,0,0-.7-.7-.7-.7s.5.6.1.1c-.4-.5.1.5,0,0,0-.3-.2-.6-.2-.9,0,0,0,.7,0,.1s0-.4,0-.6,0-.3,0-.4c0-.5-.2.6,0,.2,0-.1,0-.2,0-.4.1-.7-.3.4,0,0,.2-.3.6-.9.1-.3.3-.3.5-.6.8-.8,0,0-.5.3-.2.1.2,0,.3-.2.5-.3.1,0,.2-.1.4-.2-.7.4-.2,0,0,0,.9-.2-.5,0,.2,0,.8,0-.2,0-.2,0,.2,0,.3,0,.5.1.8.2,1.6.4,2.3.6,1.9.5,3.7,1.1,5.5,1.8,1,.4,2,.8,3.1,1.2.4.2.9.3,1.3.5.7.3.2,0,0,0,.3.1.6.2.8.4,1.8,1,4,.4,5-1.3,1-1.8.4-4-1.3-5h0Z" style="fill:#211715; stroke-width:0px;"/><path d="m729.6,393.7c-3.3-.8-6.8.2-9.3,2.6-4.6,4.6-4.6,12-.1,16.6,1.1,1.2,2.3,2.3,3.5,3.4,1.6,1.6,3.3,3.1,5.1,4.4,1.8,1,4,.4,5-1.3,1-1.8.4-4-1.3-5-.6-.5.7.6.2.1-.1-.1-.3-.2-.4-.3-.4-.3-.7-.6-1.1-1-.8-.7-1.6-1.4-2.3-2.2-1.3-1.2-2.4-2.5-3.7-3.7-.2-.2-.1-.1.2.2-.1-.2-.2-.3-.3-.5-.1-.2-.3-.5-.4-.8.4.8,0,0,0-.2-.2-.4-.3-.7-.3-1.1v.4c0-.2,0-.4,0-.6,0-.3,0-.6,0-.9,0-.4,0-.4,0,.1,0-.2,0-.4.1-.6,0-.3.4-.9,0-.2.3-.6.7-1.2,1.1-1.8.4-.6-.4.3.1-.2.2-.1.7-.5.1-.2,0,0,1.1-.6.6-.4s.5-.2.6-.2c-.5,0-.6,0-.3,0,.1,0,.3,0,.4,0s1.4.1.6,0c2,.5,3.9-.6,4.5-2.6.5-2-.6-4-2.6-4.5h0Z" style="fill:#211715; stroke-width:0px;"/><path d="m733.3,367.8c-1.9-.4-3.6-1.4-5.5-1.7-2-.4-4.1-.2-6.1.4-4,1.4-7.3,4.3-9.3,8-2.2,3.6-3.5,7.6-3.9,11.7-.3,4.2.8,8.7,4.4,11.2,3.9,2.4,8.8,2.4,12.7,0,1.8-1,2.3-3.3,1.3-5-1-1.8-3.3-2.3-5-1.3h0c-.4.2-.8.4-1.2.5-.1,0-1.2.3-.6.2-.4,0-.7,0-1.1,0-.2,0-.5,0-.7,0,.4,0,.4,0,0,0-.3,0-.5-.1-.8-.2-.6-.2.5.4-.2,0-.2,0-.4-.2-.6-.3.3.2.3.3.1,0-.1-.1-.2-.2-.4-.3.2.3.2.3,0,0-.4-.5,0,.2-.2-.5-.1-.5-.2-1-.3-1.5,0-.7,0-1.5,0-2.2.2-1.7.7-3.4,1.3-5,.6-1.7,1.4-3.2,2.4-4.7.4-.5.8-1,1.3-1.5.1-.1,1.1-.9.8-.7.3-.2.6-.4,1-.6,1.1-.7,2.4-1,3.6-.9-.6,0,.6.1.8.2.5.1,1,.3,1.4.5.9.4,1.9.7,2.9.9,2,.5,3.9-.6,4.5-2.6.5-2-.6-4-2.6-4.5h0Z" style="fill:#211715; stroke-width:0px;"/><path d="m581.4,348.1c-3.6,3.2-7.2,6.5-10.9,9.5-1.4,1.2-3,2.2-4.7,2.9-2.5,1-4.9,2-7.3,3.1-9,4-17.7,8.8-26,14.3-6.4,4.1-12.3,9-17.5,14.5-5.2,5.7-9.9,11.9-14.7,18-4.3,5.9-8.9,11.6-13.8,17-3.3,3.4,1.9,8.6,5.2,5.2,4.2-4.6,8.2-9.5,11.9-14.5,4.8-6.2,9.5-12.4,14.7-18.3,4.7-5.4,10.1-10.2,16-14.2,8.1-5.6,16.7-10.4,25.7-14.5,2.6-1.2,5.2-2.3,7.8-3.4,1.3-.4,2.6-1,3.8-1.6,1.1-.7,2.1-1.5,3-2.3,4.1-3.3,8.1-6.9,12-10.4,3.5-3.2-1.7-8.4-5.2-5.2h0Z" style="fill:#211715; stroke-width:0px;"/><path d="m463,352.3c20.6,3.1,40.5,9.6,58.9,19.4,4.2,2.2,7.9-4.1,3.7-6.4-18.9-10.1-39.4-16.9-60.6-20.1-2-.5-3.9.7-4.5,2.6-.5,2,.6,4,2.6,4.5h0Z" style="fill:#211715; stroke-width:0px;"/><path d="m538.1,481.9c-15.2,11.2-29.8,23-44.4,34.9-1.4,1.4-1.4,3.8,0,5.2,1.5,1.4,3.7,1.4,5.2,0,14.1-11.5,28.2-23,42.9-33.8,1.7-1.1,2.3-3.3,1.3-5-1-1.7-3.3-2.3-5-1.3h0Z" style="fill:#211715; stroke-width:0px;"/><path d="m256.4,468.7c17.9,12,34.6,25.7,51.5,39,1.5,1.4,3.7,1.4,5.2,0,1.4-1.4,1.4-3.8,0-5.2-17.5-13.7-34.6-27.7-53-40.1-3.9-2.7-7.6,3.7-3.7,6.4h0Z" style="fill:#211715; stroke-width:0px;"/><path d="m284.6,375.1c8.9-6.1,19.2-10.2,29.4-13.8,9.9-3.8,20.1-6.5,30.6-8.3,2-.5,3.1-2.6,2.6-4.5-.6-1.9-2.6-3.1-4.5-2.6-10.7,1.8-21.1,4.6-31.2,8.5-10.5,3.8-21.3,8-30.5,14.4-3.9,2.7-.2,9,3.7,6.4h0Z" style="fill:#211715; stroke-width:0px;"/><path d="m235,369.1c15.2,6.6,31.5,13.3,43.7,24.9,12.5,11.8,21.9,26.4,33.9,38.7,3.3,3.4,8.5-1.8,5.2-5.2-9.4-9.6-17.4-20.5-26.3-30.7-4.5-5.3-9.5-10-15-14.2-5.4-3.9-11.1-7.4-17.1-10.4-6.8-3.5-13.7-6.5-20.7-9.5-1.8-1-4-.4-5,1.3-1,1.8-.4,4,1.3,5h0Z" style="fill:#211715; stroke-width:0px;"/><path d="m447.9,350c-6.6,8.6-15.6,15.1-25.8,18.7-14.9,4.8-31.1,3.1-44.7-4.7-6.5-3.6-12.8-8.3-16.6-14.8-2.4-4.1-8.8-.4-6.4,3.7,4,6.4,9.6,11.7,16.1,15.5,7.5,4.7,15.9,8,24.7,9.5,16,2.7,32.3-1.2,45.4-10.8,5.2-3.8,9.8-8.3,13.6-13.5,1-1.8.4-4-1.3-5-1.8-1-4-.4-5,1.3h0Z" style="fill:#211715; stroke-width:0px;"/><path d="m548.8,275.3c-4.4-3.1-10.3-3.4-15-.7-3.4,2.1-5.7,5.6-6.2,9.6-1.3,9.3,1.3,18.8,7.3,26,4,4.9,9.8,8.1,16.2,6.8,1.9-.6,3.1-2.6,2.6-4.5-.6-1.9-2.6-3.1-4.5-2.6-4.3.8-7.9-3.2-10-6.4-2.2-3.3-3.7-7-4.4-10.9-.5-3.4-.6-7.6,1.3-10.5.4-.6-.3.3.2-.3.2-.2.7-.7.7-.7.7-.4,1.4-.7,2.1-.9,2.1-.5,4.3,0,5.9,1.3,1.8,1,4,.4,5-1.3,1-1.8.4-4-1.3-5h0Z" style="fill:#211715; stroke-width:0px;"/><path d="m670.2,273.2c1.4-1.4,3.4-2,5.4-1.8.8,0,1.6.3,2.3.7.7.4.5.3,1.2,1,.5.6-.3-.5,0,.1.2.4.5.8.7,1.2.4.8.7,1.6.9,2.4.5,2.1.8,4.3.7,6.5-.1,3.7-1,7.3-2.7,10.7-1.9,4-5,8.3-9.8,8-4.7-.3-4.7,7.1,0,7.4,10.8.6,16.8-10.7,19-19.6,1.9-7.7,1.3-19.8-6.5-24.1-5.4-2.9-12.1-2-16.5,2.3-3.4,3.3,1.8,8.5,5.2,5.2h0Z" style="fill:#211715; stroke-width:0px;"/><path d="m665.5,300.3c-1.3,8.8-4.6,17.2-9.7,24.5-5.4,8.5-12.9,18-23,20.9-4.5,1.3-2.6,8.5,2,7.1,11.7-3.5,20.4-13.5,26.8-23.4,5.6-8.2,9.3-17.4,11-27.2.5-2-.7-3.9-2.6-4.5-2-.5-4,.6-4.5,2.6h0Z" style="fill:#211715; stroke-width:0px;"/><path d="m545.8,309.9c6.9,22.7,25.9,44.9,50.7,46.9,4.7.4,4.7-7,0-7.4-10.9-.9-20.1-6.8-27.6-14.4-7.5-7.6-13-16.9-16.1-27.1-1.4-4.5-8.5-2.6-7.1,2Z" style="fill:#211715; stroke-width:0px;"/><path d="m643.8,186.9c-22.9-12.2-50.2-12.7-73.6-1.3-18.9,9.5-33,26.5-38.8,46.9-3.9,14.7-3.3,30.2,1.7,44.6,1.5,4.5,8.6,2.6,7.1-2-4.1-11.7-5-24.4-2.6-36.6,2-9.7,6.2-18.9,12.3-26.7,12.8-16.4,32.1-26.2,52.8-27,13-.7,26,2.2,37.4,8.4,4.2,2.3,7.9-4.1,3.7-6.4h0Z" style="fill:#211715; stroke-width:0px;"/><path d="m680.7,267.9c1.6-7.9,2-16,1.2-24-.8-7.4-2.7-14.6-5.5-21.4-4.7-11.3-12.3-21.1-22-28.6-1.5-1.4-3.7-1.4-5.2,0-1.4,1.4-1.4,3.8,0,5.2,8.8,6.7,15.8,15.5,20.3,25.7,5.4,13,6.9,27.3,4.1,41.2-.8,4.6,6.2,6.6,7.1,2h0Z" style="fill:#211715; stroke-width:0px;"/><path d="m599.9,325.1c3.9,1.7,8.2,2.4,12.5,2.1,4.4,0,8.6-1.6,12-4.2,1.4-1.4,1.4-3.8,0-5.2-1.5-1.4-3.7-1.4-5.2,0-.6.6.6-.4.1,0-.2.1-.5.3-.7.4s-.5.3-.8.4c-.2.1-.3.2-.5.3.1,0,.9-.3.2,0-.8.3-1.7.6-2.6.8-.3,0-.6.1-.9.2,0,0-.9.2-.5,0s-.4,0-.5,0c-.4,0-.7,0-1.1,0-1.2,0-2.4,0-3.6,0-.2,0-.5,0-.7,0h-.4c-.3,0-.2,0,.3,0-.4,0-.8,0-1.2-.2-.7-.2-1.4-.3-2.1-.6-.2,0-.5-.2-.7-.3-.8-.3.9.4,0,0-1.8-1-4-.4-5,1.3-1,1.8-.4,4,1.3,5h0Z" style="fill:#211715; stroke-width:0px;"/><path d="m608.2,296.9c.3,1,.6,1.9.9,2.9.3,1,.6,2.1.8,3.1v-1c-.1.2-.1.4-.1.6v-1c.1,0,0,.2,0,.3l.4-.9c0,0,0,.2-.1.2l.6-.7c0,0,0,0-.1.1l.7-.6c-.2.2-.5.3-.7.4l.9-.4c-.2,0-.5.2-.7.2h1c-.5-.1-.9-.1-1.4-.2-2,0-3.7,1.6-3.7,3.7,0,1,.4,1.9,1.1,2.6.7.7,1.6,1,2.6,1.1.4,0,.8,0,1.2,0,1.1,0,2.2-.3,3.2-.9,1.2-.6,2.1-1.7,2.4-3.1.2-1.1.2-2.2-.1-3.2-.5-1.8-1-3.6-1.6-5.4-.3-.9-.9-1.7-1.7-2.2-1.8-1-4-.4-5,1.3,0,0,0,0,0,0-.5.9-.6,1.9-.4,2.8h0Z" style="fill:#211715; stroke-width:0px;"/><path d="m576.1,282.5c-.8,3.2.3,10.4,6.5,10.6,8.1-.6,8-9.4,5-13.3-2.5-3.2-9.1-4.2-11.5,2.7Z" style="fill:#211715; stroke-width:0px;"/><path d="m641.2,278.3c1.2,3.1,1,10.4-5.1,11.4-8.1.5-9.1-8.2-6.7-12.5,2-3.5,8.5-5.3,11.8,1.2Z" style="fill:#211715; stroke-width:0px;"/><path d="m223.4,4.6l43.7,107c.6,1.9,2.6,3,4.5,2.6,2-.5,3.1-2.6,2.6-4.5L230.5,2.7c-.6-1.9-2.6-3.1-4.5-2.6-2,.5-3.1,2.6-2.6,4.5h0Z" style="fill:#211715; stroke-width:0px;"/><path d="m92.8,61.1c15.3,18.6,31,36.9,46.8,55.1,4.6,5.3,9.2,10.5,13.8,15.8,3.1,3.6,8.3-1.7,5.2-5.2-17.2-19.4-34.1-39.1-50.7-59-3.3-3.9-6.6-7.9-9.9-11.9-3-3.7-8.2,1.6-5.2,5.2Z" style="fill:#211715; stroke-width:0px;"/><path d="m580.8,2.7l-43.7,107c-.5,2,.6,4,2.6,4.5,2,.5,3.9-.6,4.5-2.6l43.7-107c.5-2-.6-4-2.6-4.5-2-.5-3.9.6-4.5,2.6h0Z" style="fill:#211715; stroke-width:0px;"/><path d="m713.3,55.9c-15.3,18.6-31,36.9-46.8,55.1-4.6,5.3-9.2,10.5-13.8,15.8-3.1,3.5,2.1,8.8,5.2,5.2,17.2-19.4,34.1-39.1,50.8-59,3.3-3.9,6.6-7.9,9.9-11.9,3-3.6-2.2-8.9-5.2-5.2h0Z" style="fill:#211715; stroke-width:0px;"/><path d="m681.1,302.9c5.8,6.6,13,11.8,21,15.4,7.9,3.2,16,5.8,24.4,7.6l-2.2-5.4c-3.6,8.5-8.2,16.5-13.6,23.9l4.2-1.7c-5.1-1.8-11-5.9-15.8-9.4-7.2-5.2-13.9-11.1-19.9-17.6-3.2-3.5-8.4,1.7-5.2,5.2,6.5,7,13.6,13.3,21.4,18.8,5.4,4.2,11.3,7.6,17.6,10.1,1.6.4,3.3-.3,4.2-1.7,5.4-7.4,10-15.5,13.6-23.9,1-1.8.4-4.1-1.5-5.1-.2-.1-.5-.2-.8-.3-7.7-1.6-15.3-3.9-22.6-6.8-7.5-3.3-14.1-8.1-19.5-14.2-3.2-3.5-8.3,1.7-5.2,5.2h0Z" style="fill:#211715; stroke-width:0px;"/><path d="m636.2,245.6c.8.8,1.6,1.7,2.3,2.6.5.6.9,1.1,1.4,1.7.2.3.5.6.7.9.1.1.2.3.3.4.3.3-.4-.5,0,0,2.3,3,4.6,6.1,6.9,9.1,2.2,2.8,4.4,5.6,6.8,8.2,1.9,2.3,4.2,4.2,6.8,5.7,2.8,1.4,6.6,1.7,8.7-1.1,1.4-1.5,1.4-3.7,0-5.2-1.4-1.4-3.8-1.4-5.2,0-.1.1-.3.3-.4.4-.2.4.8-.6.2-.2-.4.2,1-.4.3-.2-.6.2,1.1-.1.3,0-.7,0,.6.2.3,0-.2,0-.3-.1-.5-.1-.7-.1.7.4.1,0-.2-.1-.5-.3-.7-.4-.2-.1-.4-.2-.6-.4-.1,0-.9-.7-.4-.3s-.2-.2-.3-.3c-.3-.3-.6-.5-.9-.8-1-.9-2-2-3-3-2.2-2.4-4.3-5-6.3-7.7l-.4-.5c.4.5,0,0,0,0-.3-.3-.5-.7-.8-1-.5-.7-1-1.4-1.6-2.1-1-1.3-2-2.6-3-3.9-1.8-2.5-3.8-4.9-5.9-7.2-3.3-3.4-8.6,1.8-5.2,5.2h0Z" style="fill:#211715; stroke-width:0px;"/><path d="m428.9,328.8c0,3.1.7,6.2,1.8,9.1,1.2,2.8,3.1,5.3,5.4,7.4,4,3.7,8.4,7,13.1,9.9,1.8,1,4,.4,5-1.3,1-1.8.4-4-1.3-5-2.1-1.3-4.1-2.7-6.1-4.1-.2-.2-.5-.4-.7-.5,0,0-.6-.4-.3-.3.3.2-.4-.3-.5-.4-.2-.2-.5-.4-.7-.6-.9-.8-1.8-1.5-2.7-2.4-1.7-1.4-3.2-3.1-4.2-5,0,0-.3-.9-.5-1.4-.2-.6-.3-1.2-.4-1.8-.3-1.2-.4-2.4-.4-3.7,0-2-1.6-3.7-3.7-3.7s-3.7,1.6-3.7,3.7h0Z" style="fill:#211715; stroke-width:0px;"/><path d="m359.6,354.3c4.6-2.7,8.9-5.8,12.9-9.3,2.2-1.8,4-3.9,5.3-6.4,1.3-2.9,2.1-6.1,2.3-9.3,0-2-1.6-3.7-3.7-3.7-2,0-3.6,1.7-3.7,3.7,0,0-.1,1,0,.7,0-.3,0,.6-.1.7-.1.6-.2,1.3-.4,1.9s-.3,1.2-.6,1.8c0,.2-.2.5,0,.2-.1.3-.3.7-.5,1-.1.2-.2.4-.4.6,0,0-.6.8-.3.5.2-.3-.3.4-.4.5-.2.2-.4.4-.6.7-.8.9-1.7,1.7-2.6,2.5-.8.7-1.7,1.4-2.5,2.1s.3-.2-.2.1c-.2.2-.4.3-.7.5-.5.3-.9.7-1.4,1-2,1.4-4,2.7-6.1,3.9-1.8,1-2.3,3.3-1.3,5s3.3,2.3,5,1.3h0Z" style="fill:#211715; stroke-width:0px;"/><path d="m346.1,252c-4.2-3.7-10.1-4.6-15.1-2.3-3.5,1.7-6.1,4.9-7,8.7-2.2,9-.5,18.6,4.8,26.3,3.5,5.1,8.9,9.6,15.4,8.8,2,0,3.6-1.7,3.7-3.7,0-2-1.7-3.7-3.7-3.7-8.4,1-13.2-10.9-13.7-17.7-.3-3.5-.2-7.9,2-10.9-.5.7,1-.8.7-.6.7-.5,1.4-.8,2.2-.9,2-.5,4.1,0,5.6,1.3,3.5,3.1,8.8-2.1,5.2-5.2h0Z" style="fill:#211715; stroke-width:0px;"/><path d="m467,258.2c1.5-1.2,3.5-1.6,5.3-1.2,1.4.2,2.6.9,3.4,2-.4-.5,0-.1,0,.2.2.3.4.7.6,1,.3.8.5,1.6.7,2.4.4,2.1.5,4.3.3,6.5-.4,3.7-1.5,7.3-3.4,10.5-1.8,3.4-5.4,8.2-9.8,7.6-2-.5-3.9.7-4.5,2.6-.5,2,.6,4,2.6,4.5,11.3,1.5,18.1-8.9,21.2-18.3,2.5-7.6,2.4-19.5-5-24.4-5.2-3.2-11.9-2.6-16.6,1.4-1.4,1.4-1.4,3.8,0,5.2,1.5,1.4,3.7,1.4,5.2,0h0Z" style="fill:#211715; stroke-width:0px;"/><path d="m460,285.4c-.7,3.2-1.7,6.4-3,9.4-.2.4-1.4,3.1-.8,1.9-.3.6-.6,1.2-.8,1.8-2,3.7-4.2,7.3-6.8,10.7-6.1,8.2-14.3,16.8-24.6,19-4.6,1-2.7,8.1,2,7.1,11.9-2.6,21.2-12.2,28.3-21.5,2.8-3.6,5.3-7.5,7.4-11.5.3-.7.6-1.3.9-2,0,0,.7-1.7.3-.7.3-.7.6-1.4.9-2.2,1.4-3.2,2.5-6.5,3.3-9.9,1-4.6-6.1-6.6-7.1-2h0Z" style="fill:#211715; stroke-width:0px;"/><path d="m340.1,286.1c5.1,22.5,22.2,46.4,46.4,50.1,2,.5,3.9-.7,4.5-2.6.5-2-.6-4-2.6-4.5-21.8-3.4-36.7-24.7-41.2-45-1-4.6-8.1-2.7-7.1,2h0Z" style="fill:#211715; stroke-width:0px;"/><path d="m446.6,170.3c-22-13.9-49.4-16.2-73.5-6.4-19.5,8.2-34.6,24.1-41.8,44-4.9,14.4-5.4,29.9-1.5,44.5,1.2,4.6,8.3,2.6,7.1-2-5.5-21.7-1-45,14.1-61.9,5.9-6.7,13.1-12.2,21-16.2,10.9-5.2,22.9-7.7,34.9-7,12.8.5,25.2,4.4,35.9,11.3,4,2.6,7.7-3.8,3.7-6.4h0Z" style="fill:#211715; stroke-width:0px;"/><path d="m477.7,253.7c4.1-14.9,3.8-30.7-1-45.4-4-11.6-10.9-22.1-20-30.3-3.5-3.2-8.7,2-5.2,5.2,8.3,7.3,14.5,16.6,18.1,27,4.4,13.4,4.8,27.9,1,41.5-1.2,4.6,5.9,6.5,7.1,2h0Z" style="fill:#211715; stroke-width:0px;"/><path d="m393,305.1c3.7,1.9,7.8,2.9,12,2.8,3.9,0,8.6-.5,11.9-3,1.7-1.1,2.3-3.3,1.3-5-1-1.7-3.3-2.3-5-1.3-.4.3-.8.6-1.2.8-.1,0-.3.1-.4.2-.6.3.3,0,.3-.1,0,.1-.9.3-1.1.4-.9.3-1.8.5-2.6.6.9-.2-.1,0-.2,0-.3,0-.6,0-.8,0-.7,0-1.3,0-2,0-.6,0-1.2,0-1.8,0-.3,0-.7,0-1,0-.7,0,.3,0,0,0-.9-.1-1.8-.3-2.7-.6-.4-.1-.7-.2-1.1-.4-.1,0-.3-.1-.4-.2-.7-.2.8.4.2,0-.4-.2-.9-.4-1.3-.7-1.8-1-4-.4-5,1.3s-.4,4,1.3,5h0Z" style="fill:#211715; stroke-width:0px;"/><path d="m403.3,277.7c.5,1.9,1,3.9,1.3,5.8v-1c0,.3,0,.5-.1.8v-1c.1.1,0,.2,0,.4l.4-.9c0,0,0,.2-.1.2l.6-.7s0,0-.1.1l.7-.6c-.2.1-.3.2-.5.3l.9-.4c-.3.1-.5.2-.8.2h1c-.3,0-.5,0-.8-.1h1c-.3,0-.5,0-.8,0-.5-.2-1-.2-1.5,0-.5,0-1,.2-1.4.4-1.8,1-2.3,3.3-1.3,5,0,0,0,0,0,0,.5.8,1.3,1.5,2.2,1.7.7,0,1.3.3,2,.3,1.1,0,2.2-.2,3.2-.7,1.2-.6,2.1-1.6,2.5-2.9.3-1.1.3-2.2,0-3.2-.3-1.9-.7-3.8-1.2-5.6-.5-2-2.6-3.1-4.5-2.6-2,.5-3.1,2.6-2.6,4.5h0Z" style="fill:#211715; stroke-width:0px;"/><path d="m372.3,260.8c-1,3.1-.4,10.4,5.7,11.1,8.1,0,8.6-8.7,5.9-12.9-2.2-3.4-8.8-4.9-11.7,1.8Z" style="fill:#211715; stroke-width:0px;"/><path d="m437.5,261.3c1,3.2.3,10.4-5.9,11-8.1-.1-8.5-8.9-5.7-13,2.3-3.4,8.9-4.7,11.6,2Z" style="fill:#211715; stroke-width:0px;"/><path d="m424.8,222.4c5.8,2.6,11,6.4,15.4,11.1,4.6,4.5,8.4,9.8,11.1,15.7.6,1.9,2.6,3,4.5,2.6,2-.5,3.1-2.6,2.6-4.5-3-6.9-7.3-13.2-12.6-18.6-4.9-5.3-10.7-9.6-17.2-12.6-1.8-1-4-.4-5,1.3-1,1.8-.4,4,1.3,5h0Z" style="fill:#211715; stroke-width:0px;"/><path d="m355.8,249.4c4.8-5.1,10-9.9,15.4-14.4,2.6-2.2,5.3-4.2,8.1-6,1.2-.8,2.4-1.5,3.6-2.2.3-.2.6-.4,1-.5-.7.2-1.5,0-2.1-.5,0,.8,0,1.7.2,2.5-.1,3.7,2.2,7.1,6.2,6.8,2.9-.2,6.1-2.7,8.6-4.1,6.1-3.6,12.4-6.9,19-9.7,1.9-.6,3.1-2.6,2.6-4.5-.5-2-2.6-3.1-4.5-2.6-6.9,3-13.6,6.3-20.1,10.1-1.5.8-2.9,1.6-4.4,2.5-.5.2-1,.5-1.5.8-.9.3-.6.5.8.4.6,1.1.8,1.2.8.3.3-2,0-4.1-1-5.9-.8-1.6-2.3-2.8-4-3.2-3.2-.7-6.7,2.2-9.3,3.9-2.9,2-5.7,4.1-8.5,6.4-5.6,4.6-10.9,9.6-15.9,14.8-3.3,3.4,1.9,8.6,5.2,5.2h0Z" style="fill:#211715; stroke-width:0px;"/><path d="m552.6,284.1c.1-.3.6-1.5.2-.6.3-.6.5-1.1.8-1.6.7-1.3,1.5-2.5,2.3-3.8,1.9-2.8,4-5.6,6.2-8.2,5-6.1,10.5-11.9,16.3-17.2,1.3-1.2,2.7-2.4,4.1-3.6.2-.1,1-.7.4-.3.3-.2.6-.4.8-.6.5-.4,1.1-.7,1.6-1.1,4-2.4.4-8.8-3.7-6.4-5.8,3.5-10.8,8.8-15.5,13.7-5.8,6-11.2,12.4-16,19.1-2,2.6-3.5,5.5-4.6,8.5-1.4,4.6,5.7,6.5,7.1,2h0Z" style="fill:#211715; stroke-width:0px;"/><path d="m409.1,203.9c-24.8-.6-49.6,1.2-74.1,5.2-1.6.2-2.9,1.2-3.4,2.7-2.4,8.2-3.4,16.7-2.8,25.3.5,2.2,2.6,3.7,4.9,3.2.2,0,.3,0,.5-.1,24.4-5.9,41.6-7,76.8-6.8,14.3,0,46.7,2.3,64.3,4.5,2.2.4,4.3-1,4.8-3.2.9-6.5,0-11-1.3-17.8-.3-1.6-.8-3.2-1.5-4.7-.7-1.1-1.8-1.9-3.1-2.2-9.7-1.5-45.1-5.9-65-6.2Z" style="fill:#fff; stroke-width:0px;"/><path d="m409.1,200.2c-14.5-.3-29,.2-43.4,1.4-6.9.6-13.8,1.4-20.7,2.4-3.5.5-7.1.9-10.6,1.5-3.2.5-5.8,2.9-6.6,6.1-2.1,7.3-3.1,14.9-2.9,22.4,0,3.5.4,6.9,3.7,8.9,3,1.7,6,.9,9.2.2,10.4-2.4,20.9-4.1,31.5-4.9,23.9-1.6,47.9-1.5,71.8.4,6.2.4,12.4.9,18.6,1.5,2.8.2,5.6.5,8.4.8,2.6.4,5.1.7,7.7.8,3.3,0,6.2-1.9,7.4-4.9.9-3.4,1.2-6.9.7-10.4-.4-3.5-.9-7.1-1.7-10.6-.3-3-1.8-5.8-4-7.8-3-2.3-8.2-2.2-11.8-2.6-5-.6-10-1.3-15-1.8-11.6-1.3-23.2-2.5-34.9-3.1-2.5-.1-5-.2-7.4-.3-4.7,0-4.7,7.3,0,7.4,19.8.3,39.7,2.8,59.3,5.4.7,0,2.4.3,3.7.5,2.3.3,2.4,1.3,2.9,3.5.7,2.8,1.2,5.7,1.5,8.6.2,1.5.2,2.9.2,4.4,0,.9.3,3.4-.3,4.1-.7.8-4.5-.2-5.5-.3-2.6-.3-5.2-.5-7.7-.8-5.5-.5-11.1-1-16.6-1.4-21.9-1.7-43.9-2.2-65.8-1.5-10.2.4-20.4,1.4-30.4,3-4.9.8-9.9,1.8-14.7,3-1,.4-2,.6-3,.6-.2,0-.5-.4-.2,0-.3-.4,0-1.8-.1-2.2-.1-3.6,0-7.3.5-10.9.2-1.9.6-3.7,1-5.6.2-.8.3-1.5.5-2.3.1-1,.4-2,.8-2.9-.4.5.1,0,.2,0,1-.3,2-.5,3-.5,1.8-.3,3.7-.5,5.5-.8,6.9-1,13.8-1.8,20.7-2.4,14.8-1.3,29.7-1.8,44.5-1.5,4.7,0,4.7-7.3,0-7.4Z" style="fill:#211715; stroke-width:0px;"/><path d="m456.3,305.4c3.8,3.2,8.1,6,12.6,8.1,5,2.4,10.2,4.2,15.4,6.2l-2.2-5.4c-4.4,7.7-9.7,14.9-15.7,21.4l4.5-.6c-5.5-2.9-10.4-6.7-14.6-11.3-3.3-3.4-8.5,1.8-5.2,5.2,4.6,5.1,10.1,9.3,16.1,12.5,1.5.8,3.3.6,4.5-.6,3.1-3.4,6-7,8.8-10.8,3-3.9,5.7-7.9,8.1-12.1,1-1.8.4-4.1-1.4-5.1-.2-.1-.5-.2-.8-.3-8.7-3.2-17.5-6.4-24.7-12.4-1.5-1.4-3.7-1.4-5.2,0-1.4,1.4-1.4,3.8,0,5.2h0Z" style="fill:#211715; stroke-width:0px;"/><path d="m606.2,222.2c-24.8,2.4-49.4,7.1-73.3,14-1.5.4-2.7,1.6-3.1,3.1-1.5,8.4-1.4,17,.1,25.4.7,2.2,3.1,3.3,5.2,2.6.1,0,.3-.1.4-.2,23.7-8.7,40.7-11.9,75.8-15.8,14.3-1.6,46.9-3.3,64.7-3.2,2.2.1,4.2-1.5,4.5-3.7.3-6-.5-12-2.4-17.7-.5-1.6-1.2-3.1-2-4.5-.7-1.1-2-1.8-3.4-1.8-9.9-.3-46.7-.3-66.6,1.8Z" style="fill:#fff; stroke-width:0px;"/><path d="m606.2,218.6c-14.4,1.5-28.8,3.5-43,6.4-6.7,1.4-13.4,3-20.1,4.7-3.4.9-6.8,1.8-10.1,2.7-3.3.9-6.2,2.8-6.9,6.4-1.4,7.7-1.5,15.6-.4,23.4.5,3.5,1.2,6.8,4.8,8.3,3.2,1.4,6.2.2,9.2-.9,10.1-3.6,20.5-6.5,31-8.6,23.5-4.5,47.4-7.2,71.3-8.1,6.2-.3,12.4-.6,18.6-.7,5.3-.2,10.8.2,16.1-.3,3.3-.2,6.2-2.4,7.2-5.6.6-3.5.6-7.1,0-10.6-.4-3.5-1.2-7-2.4-10.3-1.2-3.4-2.7-6.9-6.4-8.1-3.4-1.1-7.8-.5-11.3-.5-5.1,0-10.2,0-15.2,0-11.6.1-23.3.4-34.9,1.2-2.5.2-5,.4-7.5.6-2,0-3.6,1.7-3.7,3.7,0,2,1.7,3.7,3.7,3.7,19.8-1.7,39.8-2.4,59.7-1.9,1.6,0,3.2,0,4.8,0,.6,0,1.2,0,1.8,0,.1,0,.4,0,.6,0,.4.2.9,1.6,1.1,2.1,1.7,4.3,2.7,8.8,2.9,13.5.2,1.5.2,3.1,0,4.6-.4.5-4,.2-5,.2-2.5,0-4.9,0-7.4.1-5.6.1-11.3.3-16.9.6-22.2.9-44.4,3-66.4,6.4-10,1.5-19.8,3.6-29.5,6.4-4.8,1.4-9.6,3-14.4,4.7-1.1.6-2.2.9-3.4,1.2-.1,0-.6-.2-.4,0,0-.6-.1-1.2-.3-1.8-.6-3.6-.8-7.3-.8-10.9,0-3.4.3-6.7.8-10,.2-1.2.2-1.2,1.4-1.5,1.6-.5,3.3-.9,5-1.3,6.1-1.7,12.3-3.2,18.5-4.6,12.4-2.8,24.9-4.9,37.4-6.5,3.6-.4,7.1-.8,10.7-1.2,2,0,3.6-1.7,3.7-3.7,0-2-1.7-3.7-3.7-3.7Z" style="fill:#211715; stroke-width:0px;"/><path d="m44.8,569.9c11.4-15,22.9-30,33.4-45.7,5.5-7.7,10.3-15.9,14.5-24.5,3.7-8.2,5.5-17.4,7.6-26.1,4-16.7,7.6-33.5,11-50.4.9-4.6-6.1-6.6-7.1-2-3.1,15.1-6.3,30.1-9.8,45.1-2.2,9.4-4,19.3-7.5,28.3-.4,1.1-1.2,2.7-2,4.3-1,1.9-2,3.8-3.1,5.7-2.5,4.3-5.1,8.5-7.8,12.7-6,9.1-12.3,17.9-18.8,26.7-5.5,7.5-11.1,14.8-16.7,22.2-1,1.8-.4,4,1.3,5,1.8,1,4,.4,5-1.3h0Z" style="fill:#211715; stroke-width:0px;"/><path d="m116.6,569.9c12.3-25.1,25.4-50.3,34.7-76.7,2.2-7,4-14.1,5.4-21.2,1.7-7.6,3.4-15.2,5-22.8,3.2-15.2,6.2-30.5,9.2-45.8,3.5-17.7,7.1-35.5,11-53.1,1-4.6-6.1-6.6-7.1-2-6.8,30.6-12.5,61.4-18.8,92.1-3.2,15.3-6.5,30.6-10.3,45.7-1.6,5.6-3.6,11.2-5.9,16.5-2.5,6.2-5.2,12.4-8,18.5-6.9,15.2-14.2,30.1-21.6,45-2.1,4.2,4.3,8,6.4,3.7h0Z" style="fill:#211715; stroke-width:0px;"/><path d="m708.6,444.8c5.1,31.3,12.4,62.3,19.3,93.3,2.3,10.3,4.6,20.6,6.9,30.9,1,4.6,8.1,2.7,7.1-2-7.7-34.3-15.5-68.7-22.3-103.2-1.4-7-2.7-14-3.9-21-.6-2-2.6-3.1-4.5-2.6-1.9.6-3.1,2.6-2.6,4.5h0Z" style="fill:#211715; stroke-width:0px;"/><path d="m617.1,394.6c4.3,45.5,8.4,91,12.2,136.5,1,12.3,2.1,24.6,3.1,37,.4,4.7,7.7,4.7,7.4,0-3.7-44.6-7.5-89.1-11.5-133.7-1.2-13.3-2.5-26.5-3.7-39.8,0-2-1.7-3.6-3.7-3.7-2,0-3.7,1.7-3.7,3.7h0Z" style="fill:#211715; stroke-width:0px;"/><path d="m534.6,466.5c5.7,27,10.8,54.1,15.9,81.2,1.3,7.1,2.6,14.2,4,21.3.9,4.6,8,2.7,7.1-2-5-27-10-54.1-15.4-81.1-1.4-7.2-2.9-14.3-4.4-21.4-1-4.6-8.1-2.7-7.1,2h0Z" style="fill:#211715; stroke-width:0px;"/><path d="m483.5,423.1c.4,21.5,1.8,42.9,2.7,64.3.8,19,1.3,37.9,2.2,56.9.4,7.9.6,15.8,1.2,23.8.3,4.7,7.7,4.7,7.4,0-1.1-16.2-1.6-32.4-2.3-48.6-.8-20.2-1.5-40.3-2.5-60.5-.6-11.9-1.1-23.9-1.4-35.8,0-4.7-7.4-4.7-7.4,0h0Z" style="fill:#211715; stroke-width:0px;"/><path d="m314.4,568c.4-14.7,1.3-29.5,1.9-44.2.8-19.6,1.4-39.2,2.4-58.7.6-12.2,1.2-24.4,1.4-36.6,0-4.7-7.3-4.7-7.4,0-.4,21.8-1.9,43.7-2.8,65.5-.7,17.7-1.3,35.5-2.1,53.2-.3,7-.7,14-.8,20.9-.1,4.7,7.2,4.7,7.4,0h0Z" style="fill:#211715; stroke-width:0px;"/></svg>